<svg id="svg" version="1.1" xmlns="http://www.w3.org/2000/svg" xmlns:xlink="http://www.w3.org/1999/xlink" width="400" height="400" viewBox="0, 0, 400,400"><g id="svgg"><path id="path0" d="" stroke="none" fill="#040404" fill-rule="evenodd"></path><path id="path1" d="M197.776 0.384 C 197.565 0.595,193.614 0.959,188.996 1.194 C 177.878 1.758,172.873 2.335,161.600 4.350 C 160.390 4.566,157.818 5.116,155.885 5.571 C 153.951 6.027,152.014 6.400,151.579 6.400 C 151.145 6.400,150.477 6.558,150.095 6.751 C 148.939 7.335,146.596 8.000,145.695 8.000 C 145.229 8.000,144.736 8.180,144.600 8.400 C 144.464 8.620,143.733 8.800,142.976 8.800 C 142.219 8.800,141.600 8.980,141.600 9.200 C 141.600 9.420,141.060 9.600,140.400 9.600 C 139.740 9.600,139.200 9.780,139.200 10.000 C 139.200 10.220,138.761 10.400,138.224 10.400 C 137.687 10.400,137.136 10.580,137.000 10.800 C 136.864 11.020,136.324 11.200,135.800 11.200 C 135.276 11.200,134.736 11.380,134.600 11.600 C 134.464 11.820,134.001 12.000,133.571 12.000 C 133.141 12.000,132.477 12.159,132.095 12.353 C 131.713 12.548,130.905 12.908,130.300 13.153 C 129.695 13.399,128.705 13.804,128.100 14.054 C 127.495 14.303,126.595 14.663,126.100 14.854 C 123.319 15.924,123.643 15.785,117.900 18.363 C 113.513 20.332,103.386 25.397,103.267 25.681 C 103.193 25.856,102.878 26.000,102.567 26.000 C 102.255 26.000,102.000 26.146,102.000 26.325 C 102.000 26.504,101.370 26.898,100.600 27.200 C 99.830 27.502,99.200 27.852,99.200 27.977 C 99.200 28.102,98.615 28.464,97.900 28.780 C 97.185 29.097,96.251 29.680,95.825 30.078 C 95.398 30.475,94.813 30.800,94.525 30.800 C 94.236 30.800,94.000 30.980,94.000 31.200 C 94.000 31.420,93.764 31.600,93.475 31.600 C 93.187 31.600,92.602 31.924,92.175 32.320 C 91.749 32.716,91.130 33.147,90.800 33.278 C 90.265 33.489,82.806 38.632,81.800 39.483 C 81.580 39.669,80.770 40.258,80.000 40.792 C 79.230 41.325,78.510 41.869,78.400 42.000 C 78.290 42.131,77.570 42.671,76.800 43.200 C 76.030 43.729,75.130 44.441,74.799 44.781 C 74.469 45.121,73.029 46.390,71.600 47.600 C 67.447 51.115,66.803 51.677,64.260 54.000 C 61.183 56.812,56.812 61.183,54.000 64.260 C 51.677 66.803,51.115 67.447,47.600 71.600 C 46.390 73.029,45.121 74.469,44.781 74.799 C 44.441 75.130,43.729 76.030,43.200 76.800 C 42.671 77.570,42.131 78.290,42.000 78.400 C 41.869 78.510,41.325 79.230,40.792 80.000 C 40.258 80.770,39.669 81.580,39.483 81.800 C 38.632 82.806,33.489 90.265,33.278 90.800 C 33.147 91.130,32.716 91.749,32.320 92.175 C 31.924 92.602,31.600 93.187,31.600 93.475 C 31.600 93.764,31.420 94.000,31.200 94.000 C 30.980 94.000,30.800 94.236,30.800 94.525 C 30.800 94.813,30.475 95.398,30.078 95.825 C 29.680 96.251,29.097 97.185,28.780 97.900 C 28.464 98.615,28.102 99.200,27.977 99.200 C 27.852 99.200,27.502 99.830,27.200 100.600 C 26.898 101.370,26.504 102.000,26.325 102.000 C 26.146 102.000,26.000 102.255,26.000 102.567 C 26.000 102.878,25.856 103.193,25.681 103.267 C 25.397 103.386,20.332 113.513,18.363 117.900 C 16.302 122.492,15.868 123.475,15.496 124.400 C 14.708 126.355,14.288 127.412,13.946 128.300 C 13.273 130.049,12.703 131.408,12.353 132.095 C 12.159 132.477,12.000 133.141,12.000 133.571 C 12.000 134.001,11.820 134.464,11.600 134.600 C 11.380 134.736,11.200 135.276,11.200 135.800 C 11.200 136.324,11.020 136.864,10.800 137.000 C 10.580 137.136,10.400 137.687,10.400 138.224 C 10.400 138.761,10.220 139.200,10.000 139.200 C 9.780 139.200,9.600 139.740,9.600 140.400 C 9.600 141.060,9.420 141.600,9.200 141.600 C 8.980 141.600,8.800 142.219,8.800 142.976 C 8.800 143.733,8.620 144.464,8.400 144.600 C 8.180 144.736,8.000 145.229,8.000 145.695 C 8.000 146.596,7.335 148.939,6.751 150.095 C 6.558 150.477,6.400 151.145,6.400 151.579 C 6.400 152.014,6.027 153.951,5.571 155.885 C 5.116 157.818,4.566 160.390,4.350 161.600 C 2.335 172.873,1.758 177.878,1.194 188.996 C 0.959 193.614,0.595 197.565,0.384 197.776 C -0.115 198.275,-0.115 201.725,0.384 202.224 C 0.595 202.435,0.959 206.386,1.194 211.004 C 1.758 222.122,2.335 227.127,4.350 238.400 C 4.566 239.610,5.116 242.182,5.571 244.115 C 6.027 246.049,6.400 248.063,6.400 248.592 C 6.400 249.120,6.580 249.664,6.800 249.800 C 7.020 249.936,7.200 250.566,7.200 251.200 C 7.200 251.834,7.380 252.464,7.600 252.600 C 7.820 252.736,8.000 253.366,8.000 254.000 C 8.000 254.634,8.180 255.264,8.400 255.400 C 8.620 255.536,8.800 256.267,8.800 257.024 C 8.800 257.781,8.980 258.400,9.200 258.400 C 9.420 258.400,9.600 258.940,9.600 259.600 C 9.600 260.260,9.780 260.800,10.000 260.800 C 10.220 260.800,10.400 261.239,10.400 261.776 C 10.400 262.313,10.580 262.864,10.800 263.000 C 11.020 263.136,11.200 263.676,11.200 264.200 C 11.200 264.724,11.380 265.264,11.600 265.400 C 11.820 265.536,12.000 265.999,12.000 266.429 C 12.000 266.859,12.159 267.523,12.353 267.905 C 12.548 268.287,12.908 269.095,13.153 269.700 C 13.399 270.305,13.804 271.295,14.054 271.900 C 14.303 272.505,14.663 273.405,14.854 273.900 C 15.750 276.229,15.954 276.723,16.749 278.500 C 17.217 279.545,17.941 281.165,18.357 282.100 C 19.648 284.997,25.341 296.589,25.577 296.800 C 25.699 296.910,26.025 297.405,26.300 297.900 C 26.575 298.395,27.025 299.205,27.300 299.700 C 27.575 300.195,27.890 300.690,28.001 300.800 C 28.111 300.910,28.471 301.540,28.801 302.200 C 29.130 302.860,29.715 303.749,30.100 304.175 C 30.485 304.602,30.800 305.187,30.800 305.475 C 30.800 305.764,30.936 306.000,31.102 306.000 C 31.269 306.000,31.631 306.495,31.908 307.100 C 32.544 308.489,41.121 320.792,42.017 321.600 C 42.139 321.710,42.671 322.430,43.200 323.200 C 43.729 323.970,44.444 324.870,44.788 325.200 C 45.133 325.530,46.221 326.784,47.207 327.986 C 53.223 335.319,61.188 343.484,68.200 349.503 C 70.620 351.581,73.243 353.857,74.029 354.562 C 74.814 355.267,76.074 356.275,76.829 356.803 C 77.583 357.330,78.491 358.086,78.847 358.481 C 79.203 358.876,79.664 359.200,79.871 359.200 C 80.079 359.200,80.598 359.524,81.025 359.920 C 82.303 361.106,93.084 368.400,93.560 368.400 C 93.802 368.400,94.000 368.558,94.000 368.751 C 94.000 368.945,94.540 369.327,95.200 369.600 C 95.860 369.873,96.400 370.222,96.400 370.374 C 96.400 370.526,97.030 370.898,97.800 371.200 C 98.570 371.502,99.200 371.875,99.200 372.028 C 99.200 372.181,99.515 372.407,99.900 372.529 C 100.656 372.768,102.874 374.051,103.200 374.437 C 103.409 374.684,116.369 381.051,118.800 382.101 C 123.822 384.269,124.969 384.749,126.200 385.200 C 128.046 385.876,131.131 387.157,132.095 387.647 C 132.477 387.841,133.141 388.000,133.571 388.000 C 134.001 388.000,134.464 388.180,134.600 388.400 C 134.736 388.620,135.276 388.800,135.800 388.800 C 136.324 388.800,136.864 388.980,137.000 389.200 C 137.136 389.420,137.687 389.600,138.224 389.600 C 138.761 389.600,139.200 389.780,139.200 390.000 C 139.200 390.220,139.740 390.400,140.400 390.400 C 141.060 390.400,141.600 390.580,141.600 390.800 C 141.600 391.020,142.219 391.200,142.976 391.200 C 143.733 391.200,144.464 391.380,144.600 391.600 C 144.736 391.820,145.366 392.000,146.000 392.000 C 146.634 392.000,147.264 392.180,147.400 392.400 C 147.536 392.620,148.166 392.800,148.800 392.800 C 149.434 392.800,150.049 392.956,150.167 393.147 C 150.285 393.338,151.151 393.602,152.091 393.734 C 153.031 393.866,154.520 394.144,155.400 394.352 C 165.747 396.798,179.454 398.605,190.903 399.034 C 194.589 399.172,197.705 399.446,197.826 399.643 C 198.114 400.108,201.886 400.108,202.174 399.643 C 202.295 399.446,205.411 399.172,209.097 399.034 C 219.931 398.628,229.621 397.428,240.800 395.108 C 243.990 394.445,247.276 393.816,248.103 393.710 C 248.929 393.603,249.705 393.355,249.826 393.158 C 249.948 392.961,250.566 392.800,251.200 392.800 C 251.834 392.800,252.464 392.620,252.600 392.400 C 252.736 392.180,253.366 392.000,254.000 392.000 C 254.634 392.000,255.264 391.820,255.400 391.600 C 255.536 391.380,256.267 391.200,257.024 391.200 C 257.781 391.200,258.400 391.020,258.400 390.800 C 258.400 390.580,258.940 390.400,259.600 390.400 C 260.260 390.400,260.800 390.220,260.800 390.000 C 260.800 389.780,261.239 389.600,261.776 389.600 C 262.313 389.600,262.864 389.420,263.000 389.200 C 263.136 388.980,263.676 388.800,264.200 388.800 C 264.724 388.800,265.264 388.620,265.400 388.400 C 265.536 388.180,265.999 388.000,266.429 388.000 C 266.859 388.000,267.523 387.841,267.905 387.647 C 268.555 387.316,269.353 386.979,271.800 386.000 C 272.350 385.780,273.250 385.420,273.800 385.200 C 274.350 384.980,275.205 384.638,275.700 384.441 C 276.661 384.057,278.660 383.208,281.100 382.148 C 283.675 381.029,296.590 374.686,296.800 374.437 C 296.910 374.307,297.405 373.975,297.900 373.700 C 298.395 373.425,299.205 372.975,299.700 372.700 C 300.195 372.425,300.690 372.110,300.800 371.999 C 300.910 371.889,301.540 371.529,302.200 371.199 C 302.860 370.870,303.580 370.473,303.800 370.319 C 304.020 370.164,307.350 367.938,311.200 365.373 C 315.050 362.808,318.572 360.370,319.026 359.955 C 319.480 359.540,319.999 359.200,320.179 359.200 C 320.359 359.200,320.797 358.876,321.153 358.481 C 321.509 358.086,322.430 357.329,323.200 356.800 C 323.970 356.271,324.870 355.556,325.200 355.212 C 325.530 354.867,326.790 353.779,328.000 352.793 C 336.361 345.981,345.981 336.361,352.793 328.000 C 353.779 326.790,354.867 325.530,355.212 325.200 C 355.556 324.870,356.271 323.970,356.800 323.200 C 357.329 322.430,358.086 321.509,358.481 321.153 C 358.876 320.797,359.200 320.359,359.200 320.179 C 359.200 319.999,359.540 319.480,359.955 319.026 C 360.370 318.572,362.808 315.050,365.373 311.200 C 367.938 307.350,370.164 304.020,370.319 303.800 C 370.473 303.580,370.870 302.860,371.199 302.200 C 371.529 301.540,371.889 300.910,371.999 300.800 C 372.110 300.690,372.425 300.195,372.700 299.700 C 372.975 299.205,373.425 298.395,373.700 297.900 C 373.975 297.405,374.307 296.910,374.437 296.800 C 374.686 296.590,381.029 283.675,382.148 281.100 C 383.208 278.660,384.057 276.661,384.441 275.700 C 385.359 273.399,385.631 272.725,386.054 271.700 C 386.303 271.095,386.684 270.150,386.900 269.600 C 387.116 269.050,387.452 268.287,387.647 267.905 C 387.841 267.523,388.000 266.859,388.000 266.429 C 388.000 265.999,388.180 265.536,388.400 265.400 C 388.620 265.264,388.800 264.724,388.800 264.200 C 388.800 263.676,388.980 263.136,389.200 263.000 C 389.420 262.864,389.600 262.313,389.600 261.776 C 389.600 261.239,389.780 260.800,390.000 260.800 C 390.220 260.800,390.400 260.260,390.400 259.600 C 390.400 258.940,390.580 258.400,390.800 258.400 C 391.020 258.400,391.200 257.781,391.200 257.024 C 391.200 256.267,391.380 255.536,391.600 255.400 C 391.820 255.264,392.000 254.634,392.000 254.000 C 392.000 253.366,392.180 252.736,392.400 252.600 C 392.620 252.464,392.800 251.834,392.800 251.200 C 392.800 250.566,392.961 249.948,393.158 249.826 C 393.355 249.705,393.603 248.929,393.710 248.103 C 393.816 247.276,394.445 243.990,395.108 240.800 C 397.428 229.621,398.628 219.931,399.034 209.097 C 399.172 205.411,399.446 202.295,399.643 202.174 C 400.108 201.886,400.108 198.114,399.643 197.826 C 399.446 197.705,399.172 194.589,399.034 190.903 C 398.605 179.454,396.798 165.747,394.352 155.400 C 394.144 154.520,393.866 153.031,393.734 152.091 C 393.602 151.151,393.338 150.285,393.147 150.167 C 392.956 150.049,392.800 149.434,392.800 148.800 C 392.800 148.166,392.620 147.536,392.400 147.400 C 392.180 147.264,392.000 146.634,392.000 146.000 C 392.000 145.366,391.820 144.736,391.600 144.600 C 391.380 144.464,391.200 143.733,391.200 142.976 C 391.200 142.219,391.020 141.600,390.800 141.600 C 390.580 141.600,390.400 141.060,390.400 140.400 C 390.400 139.740,390.220 139.200,390.000 139.200 C 389.780 139.200,389.600 138.761,389.600 138.224 C 389.600 137.687,389.420 137.136,389.200 137.000 C 388.980 136.864,388.800 136.324,388.800 135.800 C 388.800 135.276,388.620 134.736,388.400 134.600 C 388.180 134.464,388.000 134.001,388.000 133.571 C 388.000 133.141,387.841 132.477,387.647 132.095 C 387.452 131.713,387.116 130.950,386.900 130.400 C 386.684 129.850,386.279 128.860,386.000 128.200 C 385.439 126.872,384.853 125.420,384.387 124.200 C 384.077 123.387,383.326 121.610,382.148 118.900 C 381.029 116.325,374.686 103.410,374.437 103.200 C 374.051 102.874,372.768 100.656,372.529 99.900 C 372.407 99.515,372.181 99.200,372.028 99.200 C 371.875 99.200,371.502 98.570,371.200 97.800 C 370.898 97.030,370.526 96.400,370.374 96.400 C 370.222 96.400,369.873 95.860,369.600 95.200 C 369.327 94.540,368.945 94.000,368.751 94.000 C 368.558 94.000,368.400 93.802,368.400 93.560 C 368.400 93.084,361.106 82.303,359.920 81.025 C 359.524 80.598,359.200 80.079,359.200 79.871 C 359.200 79.664,358.876 79.203,358.481 78.847 C 358.086 78.491,357.330 77.583,356.803 76.829 C 356.275 76.074,355.267 74.814,354.562 74.029 C 353.857 73.243,351.581 70.620,349.503 68.200 C 343.484 61.188,335.319 53.223,327.986 47.207 C 326.784 46.221,325.530 45.133,325.200 44.788 C 324.870 44.444,323.970 43.729,323.200 43.200 C 322.430 42.671,321.710 42.139,321.600 42.017 C 320.792 41.121,308.489 32.544,307.100 31.908 C 306.495 31.631,306.000 31.269,306.000 31.102 C 306.000 30.936,305.764 30.800,305.475 30.800 C 305.187 30.800,304.602 30.485,304.175 30.100 C 303.749 29.715,302.860 29.130,302.200 28.801 C 301.540 28.471,300.910 28.111,300.800 28.001 C 300.690 27.890,300.195 27.575,299.700 27.300 C 299.205 27.025,298.395 26.575,297.900 26.300 C 297.405 26.025,296.910 25.699,296.800 25.577 C 296.589 25.341,284.997 19.648,282.100 18.357 C 281.165 17.941,279.545 17.217,278.500 16.749 C 277.455 16.281,276.240 15.766,275.800 15.603 C 275.360 15.440,274.505 15.103,273.900 14.854 C 273.295 14.604,272.350 14.220,271.800 14.000 C 269.353 13.021,268.555 12.684,267.905 12.353 C 267.523 12.159,266.859 12.000,266.429 12.000 C 265.999 12.000,265.536 11.820,265.400 11.600 C 265.264 11.380,264.724 11.200,264.200 11.200 C 263.676 11.200,263.136 11.020,263.000 10.800 C 262.864 10.580,262.313 10.400,261.776 10.400 C 261.239 10.400,260.800 10.220,260.800 10.000 C 260.800 9.780,260.260 9.600,259.600 9.600 C 258.940 9.600,258.400 9.420,258.400 9.200 C 258.400 8.980,257.781 8.800,257.024 8.800 C 256.267 8.800,255.536 8.620,255.400 8.400 C 255.264 8.180,254.634 8.000,254.000 8.000 C 253.366 8.000,252.736 7.820,252.600 7.600 C 252.464 7.380,251.834 7.200,251.200 7.200 C 250.566 7.200,249.936 7.020,249.800 6.800 C 249.664 6.580,249.120 6.400,248.592 6.400 C 248.063 6.400,246.049 6.027,244.115 5.571 C 242.182 5.116,239.610 4.566,238.400 4.350 C 227.127 2.335,222.122 1.758,211.004 1.194 C 206.386 0.959,202.435 0.595,202.224 0.384 C 201.725 -0.115,198.275 -0.115,197.776 0.384 M216.600 18.368 C 218.800 18.592,222.040 18.958,223.800 19.181 C 225.560 19.404,227.990 19.696,229.200 19.830 C 230.410 19.964,231.571 20.237,231.780 20.437 C 231.989 20.637,233.013 20.800,234.056 20.800 C 235.099 20.800,236.064 20.980,236.200 21.200 C 236.336 21.420,237.146 21.600,238.000 21.600 C 238.854 21.600,239.664 21.780,239.800 22.000 C 239.936 22.220,240.656 22.400,241.400 22.400 C 242.144 22.400,242.864 22.580,243.000 22.800 C 243.136 23.020,243.957 23.200,244.824 23.200 C 245.691 23.200,246.400 23.380,246.400 23.600 C 246.400 23.820,247.030 24.000,247.800 24.000 C 248.570 24.000,249.200 24.180,249.200 24.400 C 249.200 24.620,249.729 24.800,250.376 24.800 C 251.023 24.800,251.664 24.980,251.800 25.200 C 251.936 25.420,252.566 25.600,253.200 25.600 C 253.834 25.600,254.464 25.780,254.600 26.000 C 254.736 26.220,255.276 26.400,255.800 26.400 C 256.324 26.400,256.864 26.580,257.000 26.800 C 257.136 27.020,257.676 27.200,258.200 27.200 C 258.724 27.200,259.264 27.380,259.400 27.600 C 259.536 27.820,259.967 28.000,260.358 28.000 C 261.615 28.000,270.999 31.736,276.556 34.450 C 277.852 35.082,279.142 35.600,279.423 35.600 C 279.704 35.600,279.993 35.737,280.067 35.904 C 280.140 36.071,281.820 37.011,283.800 37.994 C 285.780 38.977,287.490 39.875,287.600 39.990 C 287.972 40.381,290.196 41.648,290.900 41.871 C 291.285 41.993,291.600 42.252,291.600 42.447 C 291.600 42.641,291.960 42.800,292.400 42.800 C 292.840 42.800,293.200 42.980,293.200 43.200 C 293.200 43.420,293.386 43.600,293.614 43.600 C 294.030 43.600,306.826 51.856,307.200 52.366 C 307.310 52.516,308.030 53.071,308.800 53.600 C 309.570 54.129,310.491 54.886,310.847 55.281 C 311.203 55.676,311.671 56.000,311.888 56.000 C 312.104 56.000,312.803 56.498,313.441 57.108 C 314.078 57.717,315.010 58.502,315.512 58.854 C 321.841 63.285,342.713 84.785,343.963 88.161 C 344.052 88.402,344.421 88.870,344.782 89.200 C 345.143 89.530,345.871 90.430,346.400 91.200 C 346.929 91.970,347.483 92.690,347.632 92.800 C 348.162 93.191,356.400 105.936,356.400 106.364 C 356.400 106.604,356.580 106.800,356.800 106.800 C 357.020 106.800,357.200 107.160,357.200 107.600 C 357.200 108.040,357.359 108.400,357.553 108.400 C 357.748 108.400,358.007 108.715,358.129 109.100 C 358.425 110.036,359.724 112.166,360.100 112.333 C 360.265 112.407,360.400 112.797,360.400 113.200 C 360.400 113.603,360.536 113.993,360.702 114.067 C 360.868 114.140,361.632 115.460,362.400 117.000 C 363.168 118.540,363.932 119.860,364.098 119.933 C 364.264 120.007,364.400 120.296,364.400 120.577 C 364.400 120.858,364.918 122.148,365.550 123.444 C 368.370 129.219,372.317 139.178,372.685 141.447 C 372.808 142.202,373.064 142.916,373.254 143.033 C 373.444 143.151,373.600 143.599,373.600 144.029 C 373.600 144.459,373.758 145.123,373.951 145.505 C 374.540 146.672,375.200 149.008,375.200 149.928 C 375.200 150.408,375.380 150.800,375.600 150.800 C 375.820 150.800,376.000 151.430,376.000 152.200 C 376.000 152.970,376.180 153.600,376.400 153.600 C 376.620 153.600,376.800 154.309,376.800 155.176 C 376.800 156.043,376.980 156.864,377.200 157.000 C 377.420 157.136,377.600 157.856,377.600 158.600 C 377.600 159.344,377.780 160.064,378.000 160.200 C 378.220 160.336,378.400 161.146,378.400 162.000 C 378.400 162.854,378.580 163.664,378.800 163.800 C 379.020 163.936,379.200 164.901,379.200 165.944 C 379.200 166.987,379.363 168.011,379.563 168.220 C 379.932 168.606,380.264 170.905,380.629 175.600 C 380.740 177.030,380.994 178.560,381.193 179.000 C 382.448 181.771,382.448 218.229,381.193 221.000 C 380.994 221.440,380.740 222.970,380.629 224.400 C 380.264 229.095,379.932 231.394,379.563 231.780 C 379.363 231.989,379.200 233.013,379.200 234.056 C 379.200 235.099,379.020 236.064,378.800 236.200 C 378.580 236.336,378.400 237.146,378.400 238.000 C 378.400 238.854,378.220 239.664,378.000 239.800 C 377.780 239.936,377.600 240.757,377.600 241.624 C 377.600 242.491,377.420 243.200,377.200 243.200 C 376.980 243.200,376.800 243.920,376.800 244.800 C 376.800 245.680,376.620 246.400,376.400 246.400 C 376.180 246.400,376.000 247.030,376.000 247.800 C 376.000 248.570,375.820 249.200,375.600 249.200 C 375.380 249.200,375.200 249.592,375.200 250.072 C 375.200 250.992,374.540 253.328,373.951 254.495 C 373.758 254.877,373.600 255.541,373.600 255.971 C 373.600 256.401,373.420 256.864,373.200 257.000 C 372.980 257.136,372.800 257.604,372.800 258.041 C 372.800 258.742,370.693 264.892,369.524 267.600 C 369.287 268.150,368.960 268.960,368.797 269.400 C 368.419 270.422,366.925 273.751,365.953 275.738 C 365.539 276.584,365.200 277.529,365.200 277.838 C 365.200 278.147,365.020 278.400,364.800 278.400 C 364.580 278.400,364.400 278.745,364.400 279.167 C 364.400 279.588,364.263 279.993,364.096 280.067 C 363.929 280.140,362.989 281.820,362.006 283.800 C 361.023 285.780,360.121 287.490,360.000 287.600 C 359.879 287.710,359.335 288.655,358.791 289.700 C 358.247 290.745,357.666 291.600,357.501 291.600 C 357.335 291.600,357.200 291.960,357.200 292.400 C 357.200 292.840,357.020 293.200,356.800 293.200 C 356.580 293.200,356.400 293.375,356.400 293.589 C 356.400 294.284,348.542 306.453,347.611 307.200 C 347.474 307.310,346.929 308.030,346.400 308.800 C 345.871 309.570,345.331 310.290,345.200 310.400 C 345.069 310.510,344.529 311.230,344.000 312.000 C 343.471 312.770,342.759 313.670,342.419 314.000 C 342.079 314.331,341.175 315.411,340.412 316.400 C 335.339 322.975,322.975 335.339,316.400 340.412 C 315.411 341.175,314.331 342.079,314.000 342.419 C 313.670 342.759,312.770 343.471,312.000 344.000 C 311.230 344.529,310.510 345.069,310.400 345.200 C 310.290 345.331,309.570 345.871,308.800 346.400 C 308.030 346.929,307.310 347.474,307.200 347.611 C 307.005 347.854,302.813 350.805,300.964 352.000 C 297.048 354.531,293.916 356.400,293.589 356.400 C 293.375 356.400,293.200 356.580,293.200 356.800 C 293.200 357.020,292.840 357.200,292.400 357.200 C 291.960 357.200,291.600 357.335,291.600 357.501 C 291.600 357.666,290.745 358.247,289.700 358.791 C 288.655 359.335,287.710 359.879,287.600 360.000 C 287.490 360.121,285.780 361.023,283.800 362.006 C 281.820 362.989,280.140 363.929,280.067 364.096 C 279.993 364.263,279.588 364.400,279.167 364.400 C 278.745 364.400,278.400 364.580,278.400 364.800 C 278.400 365.020,278.147 365.200,277.838 365.200 C 277.529 365.200,276.584 365.539,275.738 365.953 C 273.838 366.882,270.505 368.383,269.300 368.851 C 268.805 369.043,267.995 369.370,267.500 369.578 C 264.595 370.798,258.717 372.800,258.041 372.800 C 257.604 372.800,257.136 372.980,257.000 373.200 C 256.864 373.420,256.401 373.600,255.971 373.600 C 255.541 373.600,254.877 373.758,254.495 373.951 C 253.328 374.540,250.992 375.200,250.072 375.200 C 249.592 375.200,249.200 375.380,249.200 375.600 C 249.200 375.820,248.570 376.000,247.800 376.000 C 247.030 376.000,246.400 376.180,246.400 376.400 C 246.400 376.620,245.680 376.800,244.800 376.800 C 243.920 376.800,243.200 376.980,243.200 377.200 C 243.200 377.420,242.491 377.600,241.624 377.600 C 240.757 377.600,239.936 377.780,239.800 378.000 C 239.664 378.220,238.854 378.400,238.000 378.400 C 237.146 378.400,236.336 378.580,236.200 378.800 C 236.064 379.020,235.099 379.200,234.056 379.200 C 233.013 379.200,231.989 379.363,231.780 379.563 C 231.394 379.932,229.095 380.264,224.400 380.629 C 222.970 380.740,221.440 380.994,221.000 381.193 C 218.229 382.448,181.771 382.448,179.000 381.193 C 178.560 380.994,177.030 380.740,175.600 380.629 C 170.905 380.264,168.606 379.932,168.220 379.563 C 168.011 379.363,166.987 379.200,165.944 379.200 C 164.901 379.200,163.936 379.020,163.800 378.800 C 163.664 378.580,162.854 378.400,162.000 378.400 C 161.146 378.400,160.336 378.220,160.200 378.000 C 160.064 377.780,159.344 377.600,158.600 377.600 C 157.856 377.600,157.136 377.420,157.000 377.200 C 156.864 376.980,156.043 376.800,155.176 376.800 C 154.309 376.800,153.600 376.620,153.600 376.400 C 153.600 376.180,152.970 376.000,152.200 376.000 C 151.430 376.000,150.800 375.820,150.800 375.600 C 150.800 375.380,150.408 375.200,149.928 375.200 C 149.008 375.200,146.672 374.540,145.505 373.951 C 145.123 373.758,144.459 373.600,144.029 373.600 C 143.599 373.600,143.151 373.444,143.033 373.254 C 142.916 373.064,142.202 372.808,141.447 372.685 C 139.178 372.317,129.219 368.370,123.444 365.550 C 122.148 364.918,120.858 364.400,120.577 364.400 C 120.296 364.400,120.007 364.264,119.933 364.098 C 119.860 363.932,118.540 363.168,117.000 362.400 C 115.460 361.632,114.140 360.868,114.067 360.702 C 113.993 360.536,113.588 360.400,113.167 360.400 C 112.745 360.400,112.400 360.241,112.400 360.047 C 112.400 359.852,112.085 359.593,111.700 359.471 C 110.764 359.175,108.634 357.876,108.467 357.500 C 108.393 357.335,107.988 357.200,107.567 357.200 C 107.145 357.200,106.800 357.020,106.800 356.800 C 106.800 356.580,106.604 356.400,106.364 356.400 C 105.936 356.400,93.191 348.162,92.800 347.632 C 92.690 347.483,91.970 346.929,91.200 346.400 C 90.430 345.871,89.530 345.143,89.200 344.782 C 88.870 344.421,88.402 344.052,88.161 343.963 C 84.785 342.713,63.285 321.841,58.854 315.512 C 58.502 315.010,57.717 314.078,57.108 313.441 C 56.498 312.803,56.000 312.104,56.000 311.888 C 56.000 311.671,55.676 311.203,55.281 310.847 C 54.886 310.491,54.129 309.570,53.600 308.800 C 53.071 308.030,52.516 307.310,52.366 307.200 C 51.856 306.826,43.600 294.030,43.600 293.614 C 43.600 293.386,43.420 293.200,43.200 293.200 C 42.980 293.200,42.800 292.840,42.800 292.400 C 42.800 291.960,42.641 291.600,42.447 291.600 C 42.252 291.600,41.993 291.285,41.871 290.900 C 41.648 290.196,40.381 287.972,39.990 287.600 C 39.875 287.490,38.977 285.780,37.994 283.800 C 37.011 281.820,36.071 280.140,35.904 280.067 C 35.737 279.993,35.600 279.704,35.600 279.423 C 35.600 279.142,35.082 277.852,34.450 276.556 C 31.736 270.999,28.000 261.615,28.000 260.358 C 28.000 259.967,27.820 259.536,27.600 259.400 C 27.380 259.264,27.200 258.724,27.200 258.200 C 27.200 257.676,27.020 257.136,26.800 257.000 C 26.580 256.864,26.400 256.324,26.400 255.800 C 26.400 255.276,26.220 254.736,26.000 254.600 C 25.780 254.464,25.600 253.834,25.600 253.200 C 25.600 252.566,25.420 251.936,25.200 251.800 C 24.980 251.664,24.800 251.023,24.800 250.376 C 24.800 249.729,24.620 249.200,24.400 249.200 C 24.180 249.200,24.000 248.570,24.000 247.800 C 24.000 247.030,23.820 246.400,23.600 246.400 C 23.380 246.400,23.200 245.691,23.200 244.824 C 23.200 243.957,23.020 243.136,22.800 243.000 C 22.580 242.864,22.400 242.144,22.400 241.400 C 22.400 240.656,22.220 239.936,22.000 239.800 C 21.780 239.664,21.600 238.854,21.600 238.000 C 21.600 237.146,21.420 236.336,21.200 236.200 C 20.980 236.064,20.800 235.099,20.800 234.056 C 20.800 233.013,20.637 231.989,20.437 231.780 C 20.237 231.571,19.964 230.410,19.830 229.200 C 19.696 227.990,19.407 225.560,19.187 223.800 C 18.118 215.230,17.880 210.892,17.880 200.000 C 17.880 189.108,18.118 184.770,19.187 176.200 C 19.407 174.440,19.696 172.010,19.830 170.800 C 19.964 169.590,20.237 168.429,20.437 168.220 C 20.637 168.011,20.800 166.987,20.800 165.944 C 20.800 164.901,20.980 163.936,21.200 163.800 C 21.420 163.664,21.600 162.854,21.600 162.000 C 21.600 161.146,21.780 160.336,22.000 160.200 C 22.220 160.064,22.400 159.344,22.400 158.600 C 22.400 157.856,22.580 157.136,22.800 157.000 C 23.020 156.864,23.200 156.043,23.200 155.176 C 23.200 154.309,23.380 153.600,23.600 153.600 C 23.820 153.600,24.000 153.071,24.000 152.424 C 24.000 151.777,24.180 151.136,24.400 151.000 C 24.620 150.864,24.800 150.234,24.800 149.600 C 24.800 148.966,24.980 148.336,25.200 148.200 C 25.420 148.064,25.600 147.434,25.600 146.800 C 25.600 146.166,25.780 145.536,26.000 145.400 C 26.220 145.264,26.400 144.724,26.400 144.200 C 26.400 143.676,26.580 143.136,26.800 143.000 C 27.020 142.864,27.200 142.324,27.200 141.800 C 27.200 141.276,27.380 140.736,27.600 140.600 C 27.820 140.464,28.000 140.033,28.000 139.642 C 28.000 138.384,32.385 127.468,34.821 122.662 C 35.249 121.816,35.600 120.886,35.600 120.596 C 35.600 120.305,35.736 120.007,35.902 119.933 C 36.068 119.860,36.832 118.540,37.600 117.000 C 38.368 115.460,39.132 114.140,39.298 114.067 C 39.464 113.993,39.600 113.588,39.600 113.167 C 39.600 112.745,39.759 112.400,39.953 112.400 C 40.148 112.400,40.407 112.085,40.529 111.700 C 40.825 110.764,42.124 108.634,42.500 108.467 C 42.665 108.393,42.800 107.988,42.800 107.567 C 42.800 107.145,42.980 106.800,43.200 106.800 C 43.420 106.800,43.600 106.619,43.600 106.398 C 43.600 105.866,50.387 95.439,50.845 95.267 C 51.040 95.193,51.200 94.912,51.200 94.642 C 51.200 94.372,51.520 93.802,51.911 93.375 C 52.302 92.949,53.058 91.970,53.592 91.200 C 54.125 90.430,54.886 89.509,55.281 89.153 C 55.676 88.797,56.001 88.347,56.002 88.153 C 56.003 87.959,56.505 87.260,57.118 86.600 C 57.731 85.940,58.495 85.024,58.816 84.565 C 62.668 79.057,79.057 62.668,84.565 58.816 C 85.024 58.495,85.940 57.731,86.600 57.118 C 87.260 56.505,87.959 56.003,88.153 56.002 C 88.347 56.001,88.797 55.676,89.153 55.281 C 89.509 54.886,90.430 54.125,91.200 53.592 C 91.970 53.058,92.949 52.302,93.375 51.911 C 93.802 51.520,94.372 51.200,94.642 51.200 C 94.912 51.200,95.193 51.040,95.267 50.845 C 95.439 50.387,105.866 43.600,106.398 43.600 C 106.619 43.600,106.800 43.420,106.800 43.200 C 106.800 42.980,107.160 42.800,107.600 42.800 C 108.040 42.800,108.400 42.641,108.400 42.447 C 108.400 42.252,108.715 41.993,109.100 41.871 C 110.036 41.575,112.166 40.276,112.333 39.900 C 112.407 39.735,112.797 39.600,113.200 39.600 C 113.603 39.600,113.993 39.464,114.067 39.298 C 114.140 39.132,115.460 38.368,117.000 37.600 C 118.540 36.832,119.860 36.068,119.933 35.902 C 120.007 35.736,120.305 35.600,120.596 35.600 C 120.886 35.600,121.816 35.249,122.662 34.821 C 127.468 32.385,138.384 28.000,139.642 28.000 C 140.033 28.000,140.464 27.820,140.600 27.600 C 140.736 27.380,141.276 27.200,141.800 27.200 C 142.324 27.200,142.864 27.020,143.000 26.800 C 143.136 26.580,143.676 26.400,144.200 26.400 C 144.724 26.400,145.264 26.220,145.400 26.000 C 145.536 25.780,146.166 25.600,146.800 25.600 C 147.434 25.600,148.064 25.420,148.200 25.200 C 148.336 24.980,148.966 24.800,149.600 24.800 C 150.234 24.800,150.864 24.620,151.000 24.400 C 151.136 24.180,151.777 24.000,152.424 24.000 C 153.071 24.000,153.600 23.820,153.600 23.600 C 153.600 23.380,154.309 23.200,155.176 23.200 C 156.043 23.200,156.864 23.020,157.000 22.800 C 157.136 22.580,157.856 22.400,158.600 22.400 C 159.344 22.400,160.064 22.220,160.200 22.000 C 160.336 21.780,161.146 21.600,162.000 21.600 C 162.854 21.600,163.664 21.420,163.800 21.200 C 163.936 20.980,164.901 20.800,165.944 20.800 C 166.987 20.800,168.011 20.637,168.220 20.437 C 168.429 20.237,169.590 19.964,170.800 19.830 C 172.010 19.696,174.440 19.407,176.200 19.187 C 177.960 18.967,181.332 18.643,183.694 18.466 C 186.056 18.290,188.120 18.013,188.282 17.851 C 188.687 17.446,211.681 17.866,216.600 18.368 M215.800 119.228 C 212.940 119.384,209.880 119.693,209.000 119.915 C 208.120 120.137,206.494 120.505,205.387 120.733 C 203.059 121.211,199.158 122.617,197.355 123.627 C 196.670 124.011,195.680 124.567,195.155 124.862 C 193.272 125.922,188.196 131.482,187.144 133.637 C 185.071 137.879,184.427 139.552,183.920 142.000 C 182.958 146.649,182.714 149.842,182.466 161.000 L 182.200 173.000 173.300 173.108 L 164.400 173.215 164.400 186.400 L 164.400 199.585 173.300 199.692 L 182.200 199.800 182.302 240.500 L 182.404 281.200 200.000 281.200 L 217.596 281.200 217.698 240.500 L 217.800 199.800 229.863 199.694 L 241.927 199.588 242.178 197.294 C 242.317 196.032,242.526 193.560,242.644 191.800 C 242.762 190.040,243.025 188.429,243.229 188.220 C 243.433 188.011,243.601 186.571,243.602 185.020 C 243.603 183.469,243.766 181.570,243.964 180.800 C 244.162 180.030,244.417 178.007,244.531 176.305 L 244.738 173.211 231.269 173.105 L 217.800 173.000 217.693 162.427 C 217.625 155.650,217.732 151.708,217.993 151.447 C 218.217 151.223,218.400 150.626,218.400 150.120 C 218.400 149.614,218.580 149.200,218.800 149.200 C 219.020 149.200,219.210 148.975,219.222 148.700 C 219.334 146.174,223.730 145.200,235.014 145.200 L 244.800 145.200 244.800 132.000 L 244.800 118.800 232.900 118.873 C 226.355 118.913,218.660 119.072,215.800 119.228 " stroke="none" fill="#ffffff" fill-rule="evenodd"></path></g></svg>