<svg id="svg" version="1.1" xmlns="http://www.w3.org/2000/svg" xmlns:xlink="http://www.w3.org/1999/xlink" width="400" height="400" viewBox="0, 0, 400,400"><g id="svgg"><path id="path0" d="" stroke="none" fill="#040404" fill-rule="evenodd"></path><path id="path1" d="M197.776 0.384 C 197.565 0.595,193.614 0.959,188.996 1.194 C 177.878 1.758,172.873 2.335,161.600 4.350 C 160.390 4.566,157.818 5.116,155.885 5.571 C 153.951 6.027,152.014 6.400,151.579 6.400 C 151.145 6.400,150.477 6.558,150.095 6.751 C 148.939 7.335,146.596 8.000,145.695 8.000 C 145.229 8.000,144.736 8.180,144.600 8.400 C 144.464 8.620,143.733 8.800,142.976 8.800 C 142.219 8.800,141.600 8.980,141.600 9.200 C 141.600 9.420,141.060 9.600,140.400 9.600 C 139.740 9.600,139.200 9.780,139.200 10.000 C 139.200 10.220,138.761 10.400,138.224 10.400 C 137.687 10.400,137.136 10.580,137.000 10.800 C 136.864 11.020,136.324 11.200,135.800 11.200 C 135.276 11.200,134.736 11.380,134.600 11.600 C 134.464 11.820,134.001 12.000,133.571 12.000 C 133.141 12.000,132.477 12.159,132.095 12.353 C 131.713 12.548,130.905 12.908,130.300 13.153 C 129.695 13.399,128.705 13.804,128.100 14.054 C 127.495 14.303,126.595 14.663,126.100 14.854 C 123.319 15.924,123.643 15.785,117.900 18.363 C 113.513 20.332,103.386 25.397,103.267 25.681 C 103.193 25.856,102.878 26.000,102.567 26.000 C 102.255 26.000,102.000 26.146,102.000 26.325 C 102.000 26.504,101.370 26.898,100.600 27.200 C 99.830 27.502,99.200 27.852,99.200 27.977 C 99.200 28.102,98.615 28.464,97.900 28.780 C 97.185 29.097,96.251 29.680,95.825 30.078 C 95.398 30.475,94.813 30.800,94.525 30.800 C 94.236 30.800,94.000 30.980,94.000 31.200 C 94.000 31.420,93.764 31.600,93.475 31.600 C 93.187 31.600,92.602 31.924,92.175 32.320 C 91.749 32.716,91.130 33.147,90.800 33.278 C 90.265 33.489,82.806 38.632,81.800 39.483 C 81.580 39.669,80.770 40.258,80.000 40.792 C 79.230 41.325,78.510 41.869,78.400 42.000 C 78.290 42.131,77.570 42.671,76.800 43.200 C 76.030 43.729,75.130 44.441,74.799 44.781 C 74.469 45.121,73.029 46.390,71.600 47.600 C 67.447 51.115,66.803 51.677,64.260 54.000 C 61.183 56.812,56.812 61.183,54.000 64.260 C 51.677 66.803,51.115 67.447,47.600 71.600 C 46.390 73.029,45.121 74.469,44.781 74.799 C 44.441 75.130,43.729 76.030,43.200 76.800 C 42.671 77.570,42.131 78.290,42.000 78.400 C 41.869 78.510,41.325 79.230,40.792 80.000 C 40.258 80.770,39.669 81.580,39.483 81.800 C 38.632 82.806,33.489 90.265,33.278 90.800 C 33.147 91.130,32.716 91.749,32.320 92.175 C 31.924 92.602,31.600 93.187,31.600 93.475 C 31.600 93.764,31.420 94.000,31.200 94.000 C 30.980 94.000,30.800 94.236,30.800 94.525 C 30.800 94.813,30.475 95.398,30.078 95.825 C 29.680 96.251,29.097 97.185,28.780 97.900 C 28.464 98.615,28.102 99.200,27.977 99.200 C 27.852 99.200,27.502 99.830,27.200 100.600 C 26.898 101.370,26.504 102.000,26.325 102.000 C 26.146 102.000,26.000 102.255,26.000 102.567 C 26.000 102.878,25.856 103.193,25.681 103.267 C 25.397 103.386,20.332 113.513,18.363 117.900 C 16.302 122.492,15.868 123.475,15.496 124.400 C 14.708 126.355,14.288 127.412,13.946 128.300 C 13.273 130.049,12.703 131.408,12.353 132.095 C 12.159 132.477,12.000 133.141,12.000 133.571 C 12.000 134.001,11.820 134.464,11.600 134.600 C 11.380 134.736,11.200 135.276,11.200 135.800 C 11.200 136.324,11.020 136.864,10.800 137.000 C 10.580 137.136,10.400 137.687,10.400 138.224 C 10.400 138.761,10.220 139.200,10.000 139.200 C 9.780 139.200,9.600 139.740,9.600 140.400 C 9.600 141.060,9.420 141.600,9.200 141.600 C 8.980 141.600,8.800 142.219,8.800 142.976 C 8.800 143.733,8.620 144.464,8.400 144.600 C 8.180 144.736,8.000 145.229,8.000 145.695 C 8.000 146.596,7.335 148.939,6.751 150.095 C 6.558 150.477,6.400 151.145,6.400 151.579 C 6.400 152.014,6.027 153.951,5.571 155.885 C 5.116 157.818,4.566 160.390,4.350 161.600 C 2.335 172.873,1.758 177.878,1.194 188.996 C 0.959 193.614,0.595 197.565,0.384 197.776 C -0.115 198.275,-0.115 201.725,0.384 202.224 C 0.595 202.435,0.959 206.386,1.194 211.004 C 1.758 222.122,2.335 227.127,4.350 238.400 C 4.566 239.610,5.116 242.182,5.571 244.115 C 6.027 246.049,6.400 248.063,6.400 248.592 C 6.400 249.120,6.580 249.664,6.800 249.800 C 7.020 249.936,7.200 250.566,7.200 251.200 C 7.200 251.834,7.380 252.464,7.600 252.600 C 7.820 252.736,8.000 253.366,8.000 254.000 C 8.000 254.634,8.180 255.264,8.400 255.400 C 8.620 255.536,8.800 256.267,8.800 257.024 C 8.800 257.781,8.980 258.400,9.200 258.400 C 9.420 258.400,9.600 258.940,9.600 259.600 C 9.600 260.260,9.780 260.800,10.000 260.800 C 10.220 260.800,10.400 261.239,10.400 261.776 C 10.400 262.313,10.580 262.864,10.800 263.000 C 11.020 263.136,11.200 263.676,11.200 264.200 C 11.200 264.724,11.380 265.264,11.600 265.400 C 11.820 265.536,12.000 265.999,12.000 266.429 C 12.000 266.859,12.159 267.523,12.353 267.905 C 12.548 268.287,12.908 269.095,13.153 269.700 C 13.399 270.305,13.804 271.295,14.054 271.900 C 14.303 272.505,14.663 273.405,14.854 273.900 C 15.750 276.229,15.954 276.723,16.749 278.500 C 17.217 279.545,17.941 281.165,18.357 282.100 C 19.648 284.997,25.341 296.589,25.577 296.800 C 25.699 296.910,26.025 297.405,26.300 297.900 C 26.575 298.395,27.025 299.205,27.300 299.700 C 27.575 300.195,27.890 300.690,28.001 300.800 C 28.111 300.910,28.471 301.540,28.801 302.200 C 29.130 302.860,29.715 303.749,30.100 304.175 C 30.485 304.602,30.800 305.187,30.800 305.475 C 30.800 305.764,30.936 306.000,31.102 306.000 C 31.269 306.000,31.631 306.495,31.908 307.100 C 32.544 308.489,41.121 320.792,42.017 321.600 C 42.139 321.710,42.671 322.430,43.200 323.200 C 43.729 323.970,44.444 324.870,44.788 325.200 C 45.133 325.530,46.221 326.784,47.207 327.986 C 53.223 335.319,61.188 343.484,68.200 349.503 C 70.620 351.581,73.243 353.857,74.029 354.562 C 74.814 355.267,76.074 356.275,76.829 356.803 C 77.583 357.330,78.491 358.086,78.847 358.481 C 79.203 358.876,79.664 359.200,79.871 359.200 C 80.079 359.200,80.598 359.524,81.025 359.920 C 82.303 361.106,93.084 368.400,93.560 368.400 C 93.802 368.400,94.000 368.558,94.000 368.751 C 94.000 368.945,94.540 369.327,95.200 369.600 C 95.860 369.873,96.400 370.222,96.400 370.374 C 96.400 370.526,97.030 370.898,97.800 371.200 C 98.570 371.502,99.200 371.875,99.200 372.028 C 99.200 372.181,99.515 372.407,99.900 372.529 C 100.656 372.768,102.874 374.051,103.200 374.437 C 103.409 374.684,116.369 381.051,118.800 382.101 C 123.822 384.269,124.969 384.749,126.200 385.200 C 128.046 385.876,131.131 387.157,132.095 387.647 C 132.477 387.841,133.141 388.000,133.571 388.000 C 134.001 388.000,134.464 388.180,134.600 388.400 C 134.736 388.620,135.276 388.800,135.800 388.800 C 136.324 388.800,136.864 388.980,137.000 389.200 C 137.136 389.420,137.687 389.600,138.224 389.600 C 138.761 389.600,139.200 389.780,139.200 390.000 C 139.200 390.220,139.740 390.400,140.400 390.400 C 141.060 390.400,141.600 390.580,141.600 390.800 C 141.600 391.020,142.219 391.200,142.976 391.200 C 143.733 391.200,144.464 391.380,144.600 391.600 C 144.736 391.820,145.366 392.000,146.000 392.000 C 146.634 392.000,147.264 392.180,147.400 392.400 C 147.536 392.620,148.166 392.800,148.800 392.800 C 149.434 392.800,150.049 392.956,150.167 393.147 C 150.285 393.338,151.151 393.602,152.091 393.734 C 153.031 393.866,154.520 394.144,155.400 394.352 C 165.747 396.798,179.454 398.605,190.903 399.034 C 194.589 399.172,197.705 399.446,197.826 399.643 C 198.114 400.108,201.886 400.108,202.174 399.643 C 202.295 399.446,205.411 399.172,209.097 399.034 C 219.931 398.628,229.621 397.428,240.800 395.108 C 243.990 394.445,247.276 393.816,248.103 393.710 C 248.929 393.603,249.705 393.355,249.826 393.158 C 249.948 392.961,250.566 392.800,251.200 392.800 C 251.834 392.800,252.464 392.620,252.600 392.400 C 252.736 392.180,253.366 392.000,254.000 392.000 C 254.634 392.000,255.264 391.820,255.400 391.600 C 255.536 391.380,256.267 391.200,257.024 391.200 C 257.781 391.200,258.400 391.020,258.400 390.800 C 258.400 390.580,258.940 390.400,259.600 390.400 C 260.260 390.400,260.800 390.220,260.800 390.000 C 260.800 389.780,261.239 389.600,261.776 389.600 C 262.313 389.600,262.864 389.420,263.000 389.200 C 263.136 388.980,263.676 388.800,264.200 388.800 C 264.724 388.800,265.264 388.620,265.400 388.400 C 265.536 388.180,265.999 388.000,266.429 388.000 C 266.859 388.000,267.523 387.841,267.905 387.647 C 268.555 387.316,269.353 386.979,271.800 386.000 C 272.350 385.780,273.250 385.420,273.800 385.200 C 274.350 384.980,275.205 384.638,275.700 384.441 C 276.661 384.057,278.660 383.208,281.100 382.148 C 283.675 381.029,296.590 374.686,296.800 374.437 C 296.910 374.307,297.405 373.975,297.900 373.700 C 298.395 373.425,299.205 372.975,299.700 372.700 C 300.195 372.425,300.690 372.110,300.800 371.999 C 300.910 371.889,301.540 371.529,302.200 371.199 C 302.860 370.870,303.580 370.473,303.800 370.319 C 304.020 370.164,307.350 367.938,311.200 365.373 C 315.050 362.808,318.572 360.370,319.026 359.955 C 319.480 359.540,319.999 359.200,320.179 359.200 C 320.359 359.200,320.797 358.876,321.153 358.481 C 321.509 358.086,322.430 357.329,323.200 356.800 C 323.970 356.271,324.870 355.556,325.200 355.212 C 325.530 354.867,326.790 353.779,328.000 352.793 C 336.361 345.981,345.981 336.361,352.793 328.000 C 353.779 326.790,354.867 325.530,355.212 325.200 C 355.556 324.870,356.271 323.970,356.800 323.200 C 357.329 322.430,358.086 321.509,358.481 321.153 C 358.876 320.797,359.200 320.359,359.200 320.179 C 359.200 319.999,359.540 319.480,359.955 319.026 C 360.370 318.572,362.808 315.050,365.373 311.200 C 367.938 307.350,370.164 304.020,370.319 303.800 C 370.473 303.580,370.870 302.860,371.199 302.200 C 371.529 301.540,371.889 300.910,371.999 300.800 C 372.110 300.690,372.425 300.195,372.700 299.700 C 372.975 299.205,373.425 298.395,373.700 297.900 C 373.975 297.405,374.307 296.910,374.437 296.800 C 374.686 296.590,381.029 283.675,382.148 281.100 C 383.208 278.660,384.057 276.661,384.441 275.700 C 385.359 273.399,385.631 272.725,386.054 271.700 C 386.303 271.095,386.684 270.150,386.900 269.600 C 387.116 269.050,387.452 268.287,387.647 267.905 C 387.841 267.523,388.000 266.859,388.000 266.429 C 388.000 265.999,388.180 265.536,388.400 265.400 C 388.620 265.264,388.800 264.724,388.800 264.200 C 388.800 263.676,388.980 263.136,389.200 263.000 C 389.420 262.864,389.600 262.313,389.600 261.776 C 389.600 261.239,389.780 260.800,390.000 260.800 C 390.220 260.800,390.400 260.260,390.400 259.600 C 390.400 258.940,390.580 258.400,390.800 258.400 C 391.020 258.400,391.200 257.781,391.200 257.024 C 391.200 256.267,391.380 255.536,391.600 255.400 C 391.820 255.264,392.000 254.634,392.000 254.000 C 392.000 253.366,392.180 252.736,392.400 252.600 C 392.620 252.464,392.800 251.834,392.800 251.200 C 392.800 250.566,392.961 249.948,393.158 249.826 C 393.355 249.705,393.603 248.929,393.710 248.103 C 393.816 247.276,394.445 243.990,395.108 240.800 C 397.428 229.621,398.628 219.931,399.034 209.097 C 399.172 205.411,399.446 202.295,399.643 202.174 C 400.123 201.877,400.099 198.564,399.609 197.695 C 399.394 197.313,399.031 193.310,398.801 188.800 C 398.398 180.896,398.165 178.305,397.238 171.400 C 396.749 167.767,395.034 158.303,394.374 155.600 C 394.133 154.610,393.841 153.080,393.726 152.200 C 393.612 151.320,393.356 150.429,393.159 150.220 C 392.962 150.011,392.800 149.347,392.800 148.744 C 392.800 148.141,392.620 147.536,392.400 147.400 C 392.180 147.264,392.000 146.634,392.000 146.000 C 392.000 145.366,391.820 144.736,391.600 144.600 C 391.380 144.464,391.200 143.834,391.200 143.200 C 391.200 142.566,391.020 141.936,390.800 141.800 C 390.580 141.664,390.400 141.124,390.400 140.600 C 390.400 140.076,390.220 139.536,390.000 139.400 C 389.780 139.264,389.600 138.724,389.600 138.200 C 389.600 137.676,389.420 137.136,389.200 137.000 C 388.980 136.864,388.800 136.313,388.800 135.776 C 388.800 135.239,388.620 134.800,388.400 134.800 C 388.180 134.800,388.000 134.361,388.000 133.824 C 388.000 133.287,387.820 132.736,387.600 132.600 C 387.380 132.464,387.200 131.924,387.200 131.400 C 387.200 130.876,387.020 130.336,386.800 130.200 C 386.580 130.064,386.400 129.603,386.400 129.176 C 386.400 128.749,386.259 128.400,386.087 128.400 C 385.915 128.400,385.527 127.560,385.224 126.534 C 384.921 125.507,384.449 124.202,384.175 123.634 C 383.901 123.065,383.279 121.700,382.794 120.600 C 379.520 113.188,376.336 106.639,375.921 106.467 C 375.745 106.393,375.600 105.988,375.600 105.567 C 375.600 105.145,375.454 104.800,375.275 104.800 C 375.096 104.800,374.702 104.170,374.400 103.400 C 374.098 102.630,373.725 102.000,373.572 102.000 C 373.419 102.000,373.193 101.685,373.071 101.300 C 372.854 100.615,371.596 98.396,371.200 98.000 C 371.090 97.890,370.803 97.440,370.562 97.000 C 369.463 94.989,368.951 94.185,368.300 93.445 C 367.915 93.007,367.600 92.413,367.600 92.125 C 367.600 91.836,367.453 91.600,367.274 91.600 C 367.095 91.600,366.649 91.015,366.283 90.300 C 365.917 89.585,364.625 87.650,363.412 86.000 C 362.198 84.350,361.082 82.730,360.932 82.400 C 360.781 82.070,360.547 81.710,360.410 81.600 C 360.273 81.490,359.729 80.770,359.200 80.000 C 358.671 79.230,357.951 78.330,357.600 78.000 C 357.249 77.670,356.530 76.783,356.003 76.029 C 355.475 75.274,354.471 74.014,353.770 73.229 C 351.870 71.098,348.898 67.717,346.200 64.614 C 343.238 61.208,339.897 57.861,335.804 54.200 C 334.083 52.660,332.478 51.217,332.237 50.994 C 331.997 50.771,330.630 49.601,329.201 48.394 C 327.771 47.187,326.331 45.921,326.001 45.581 C 325.670 45.241,324.770 44.529,324.000 44.000 C 323.230 43.471,322.330 42.751,322.000 42.400 C 321.670 42.049,319.184 40.240,316.476 38.381 C 313.768 36.521,311.181 34.690,310.728 34.312 C 310.276 33.933,309.566 33.516,309.152 33.385 C 308.739 33.254,308.400 32.978,308.400 32.773 C 308.400 32.568,308.164 32.400,307.875 32.400 C 307.587 32.400,306.993 32.085,306.555 31.700 C 305.815 31.049,305.011 30.537,303.000 29.438 C 302.560 29.197,302.110 28.910,302.000 28.800 C 301.604 28.404,299.385 27.146,298.700 26.929 C 298.315 26.807,298.000 26.581,298.000 26.428 C 298.000 26.275,297.370 25.902,296.600 25.600 C 295.830 25.298,295.200 24.904,295.200 24.725 C 295.200 24.546,294.840 24.400,294.400 24.400 C 293.960 24.400,293.600 24.264,293.600 24.098 C 293.600 23.931,293.015 23.540,292.300 23.229 C 291.585 22.917,289.020 21.720,286.600 20.568 C 284.180 19.416,280.940 17.910,279.400 17.221 C 277.860 16.532,276.330 15.825,276.000 15.651 C 275.670 15.477,274.545 15.085,273.500 14.780 C 272.455 14.475,271.600 14.085,271.600 13.913 C 271.600 13.741,271.150 13.600,270.600 13.600 C 270.050 13.600,269.600 13.420,269.600 13.200 C 269.600 12.980,269.161 12.800,268.624 12.800 C 268.087 12.800,267.536 12.620,267.400 12.400 C 267.264 12.180,266.713 12.000,266.176 12.000 C 265.639 12.000,265.200 11.820,265.200 11.600 C 265.200 11.380,264.761 11.200,264.224 11.200 C 263.687 11.200,263.136 11.020,263.000 10.800 C 262.864 10.580,262.324 10.400,261.800 10.400 C 261.276 10.400,260.736 10.220,260.600 10.000 C 260.464 9.780,259.924 9.600,259.400 9.600 C 258.876 9.600,258.336 9.420,258.200 9.200 C 258.064 8.980,257.434 8.800,256.800 8.800 C 256.166 8.800,255.536 8.620,255.400 8.400 C 255.264 8.180,254.722 8.000,254.195 8.000 C 253.669 8.000,252.824 7.839,252.319 7.642 C 250.567 6.959,242.110 5.073,236.200 4.049 C 234.880 3.820,233.260 3.529,232.600 3.402 C 231.178 3.129,226.657 2.514,222.200 1.985 C 220.440 1.777,215.313 1.419,210.807 1.190 C 206.300 0.961,202.439 0.599,202.227 0.387 C 201.726 -0.114,198.276 -0.116,197.776 0.384 M217.800 13.564 C 223.363 14.158,227.795 14.729,230.500 15.200 C 235.104 16.001,237.039 16.366,239.000 16.805 C 240.100 17.051,241.676 17.349,242.503 17.468 C 243.329 17.587,244.105 17.845,244.226 18.042 C 244.348 18.239,245.056 18.400,245.800 18.400 C 246.544 18.400,247.264 18.580,247.400 18.800 C 247.536 19.020,248.166 19.200,248.800 19.200 C 249.434 19.200,250.064 19.380,250.200 19.600 C 250.336 19.820,250.966 20.000,251.600 20.000 C 252.234 20.000,252.864 20.180,253.000 20.400 C 253.136 20.620,253.766 20.800,254.400 20.800 C 255.034 20.800,255.664 20.980,255.800 21.200 C 255.936 21.420,256.487 21.600,257.024 21.600 C 257.561 21.600,258.000 21.780,258.000 22.000 C 258.000 22.220,258.540 22.400,259.200 22.400 C 259.860 22.400,260.400 22.580,260.400 22.800 C 260.400 23.020,260.940 23.200,261.600 23.200 C 262.260 23.200,262.800 23.380,262.800 23.600 C 262.800 23.820,263.162 24.000,263.605 24.000 C 264.048 24.000,264.723 24.159,265.105 24.353 C 265.840 24.727,267.599 25.476,269.100 26.054 C 275.101 28.364,285.418 32.982,286.000 33.619 C 286.110 33.739,287.190 34.325,288.400 34.921 C 290.865 36.134,292.899 37.283,293.200 37.632 C 293.310 37.760,293.985 38.119,294.700 38.430 C 295.415 38.741,296.000 39.131,296.000 39.298 C 296.000 39.464,296.270 39.600,296.600 39.600 C 296.930 39.600,297.200 39.780,297.200 40.000 C 297.200 40.220,297.388 40.400,297.618 40.400 C 297.848 40.400,299.370 41.300,301.000 42.400 C 302.630 43.500,304.130 44.400,304.333 44.400 C 304.536 44.400,304.902 44.641,305.146 44.935 C 305.391 45.230,307.348 46.667,309.495 48.130 C 311.643 49.593,313.856 51.197,314.413 51.695 C 314.971 52.193,316.231 53.228,317.213 53.994 C 320.030 56.193,320.428 56.526,321.764 57.800 C 322.456 58.460,324.097 59.900,325.411 61.000 C 328.425 63.524,337.335 72.445,339.422 75.029 C 340.290 76.103,341.540 77.547,342.200 78.238 C 343.465 79.562,343.772 79.929,346.006 82.781 C 346.772 83.760,347.841 85.072,348.379 85.695 C 348.918 86.319,350.088 87.877,350.979 89.159 C 351.871 90.440,353.277 92.459,354.105 93.644 C 356.620 97.246,359.600 102.001,359.600 102.412 C 359.600 102.626,359.780 102.800,360.000 102.800 C 360.220 102.800,360.400 103.070,360.400 103.400 C 360.400 103.730,360.536 104.000,360.702 104.000 C 360.869 104.000,361.259 104.585,361.570 105.300 C 361.881 106.015,362.240 106.690,362.368 106.800 C 362.717 107.101,363.866 109.135,365.079 111.600 C 365.675 112.810,366.269 113.890,366.399 114.000 C 366.654 114.215,369.029 119.062,370.320 122.000 C 371.006 123.563,371.907 125.754,373.241 129.100 C 374.937 133.355,375.264 134.143,375.647 134.895 C 375.841 135.277,376.000 135.952,376.000 136.395 C 376.000 136.838,376.180 137.200,376.400 137.200 C 376.620 137.200,376.800 137.740,376.800 138.400 C 376.800 139.060,376.980 139.600,377.200 139.600 C 377.420 139.600,377.600 140.140,377.600 140.800 C 377.600 141.460,377.780 142.000,378.000 142.000 C 378.220 142.000,378.400 142.439,378.400 142.976 C 378.400 143.513,378.580 144.064,378.800 144.200 C 379.020 144.336,379.200 144.966,379.200 145.600 C 379.200 146.234,379.380 146.864,379.600 147.000 C 379.820 147.136,380.000 147.766,380.000 148.400 C 380.000 149.034,380.180 149.664,380.400 149.800 C 380.620 149.936,380.800 150.566,380.800 151.200 C 380.800 151.834,380.980 152.464,381.200 152.600 C 381.420 152.736,381.600 153.456,381.600 154.200 C 381.600 154.944,381.780 155.664,382.000 155.800 C 382.220 155.936,382.400 156.631,382.400 157.344 C 382.400 158.057,382.562 158.811,382.759 159.020 C 382.956 159.229,383.219 160.120,383.343 161.000 C 383.555 162.505,383.802 163.927,384.820 169.500 C 386.343 177.840,386.999 186.974,386.995 199.800 C 386.992 214.726,386.383 221.896,384.018 234.900 C 383.808 236.055,383.526 237.630,383.391 238.400 C 383.256 239.170,382.990 240.160,382.800 240.600 C 382.455 241.398,382.151 242.856,381.735 245.703 C 381.614 246.529,381.355 247.305,381.158 247.426 C 380.961 247.548,380.800 248.166,380.800 248.800 C 380.800 249.434,380.620 250.064,380.400 250.200 C 380.180 250.336,380.000 250.966,380.000 251.600 C 380.000 252.234,379.820 252.864,379.600 253.000 C 379.380 253.136,379.200 253.777,379.200 254.424 C 379.200 255.071,379.020 255.600,378.800 255.600 C 378.580 255.600,378.400 256.140,378.400 256.800 C 378.400 257.460,378.220 258.000,378.000 258.000 C 377.780 258.000,377.600 258.439,377.600 258.976 C 377.600 259.513,377.420 260.064,377.200 260.200 C 376.980 260.336,376.800 260.876,376.800 261.400 C 376.800 261.924,376.620 262.464,376.400 262.600 C 376.180 262.736,376.000 263.199,376.000 263.629 C 376.000 264.059,375.841 264.723,375.647 265.105 C 375.264 265.858,374.501 267.701,373.247 270.900 C 370.764 277.239,363.911 291.173,363.100 291.533 C 362.935 291.607,362.800 292.012,362.800 292.433 C 362.800 292.855,362.641 293.200,362.447 293.200 C 362.252 293.200,361.993 293.515,361.871 293.900 C 361.654 294.587,360.395 296.806,359.999 297.200 C 359.889 297.310,359.544 297.895,359.232 298.500 C 358.920 299.105,358.515 299.600,358.332 299.600 C 358.150 299.600,358.000 299.795,358.000 300.034 C 358.000 300.420,350.621 311.500,350.031 312.000 C 349.902 312.110,349.304 312.859,348.704 313.665 C 348.103 314.471,347.384 315.371,347.106 315.665 C 346.828 315.959,346.125 316.830,345.545 317.600 C 343.507 320.306,335.720 329.061,332.391 332.391 C 329.061 335.720,320.306 343.507,317.600 345.545 C 316.830 346.125,315.959 346.828,315.665 347.106 C 315.371 347.384,314.471 348.103,313.665 348.704 C 312.859 349.304,312.110 349.902,312.000 350.031 C 311.500 350.621,300.420 358.000,300.034 358.000 C 299.795 358.000,299.600 358.150,299.600 358.332 C 299.600 358.515,299.105 358.920,298.500 359.232 C 297.895 359.544,297.310 359.889,297.200 359.999 C 296.806 360.395,294.587 361.654,293.900 361.871 C 293.515 361.993,293.200 362.252,293.200 362.447 C 293.200 362.641,292.855 362.800,292.433 362.800 C 292.012 362.800,291.607 362.935,291.533 363.100 C 291.173 363.911,277.239 370.764,270.900 373.247 C 270.405 373.441,269.595 373.756,269.100 373.946 C 267.599 374.524,265.840 375.273,265.105 375.647 C 264.723 375.841,264.059 376.000,263.629 376.000 C 263.199 376.000,262.736 376.180,262.600 376.400 C 262.464 376.620,261.924 376.800,261.400 376.800 C 260.876 376.800,260.336 376.980,260.200 377.200 C 260.064 377.420,259.513 377.600,258.976 377.600 C 258.439 377.600,258.000 377.780,258.000 378.000 C 258.000 378.220,257.460 378.400,256.800 378.400 C 256.140 378.400,255.600 378.580,255.600 378.800 C 255.600 379.020,255.071 379.200,254.424 379.200 C 253.777 379.200,253.136 379.380,253.000 379.600 C 252.864 379.820,252.234 380.000,251.600 380.000 C 250.966 380.000,250.336 380.180,250.200 380.400 C 250.064 380.620,249.434 380.800,248.800 380.800 C 248.166 380.800,247.548 380.961,247.426 381.158 C 247.305 381.355,246.529 381.614,245.703 381.735 C 242.856 382.151,241.398 382.455,240.600 382.800 C 240.160 382.990,239.170 383.256,238.400 383.391 C 237.630 383.526,236.055 383.808,234.900 384.018 C 221.896 386.383,214.726 386.992,199.800 386.995 C 186.974 386.999,177.840 386.343,169.500 384.820 C 163.927 383.802,162.505 383.555,161.000 383.343 C 160.120 383.219,159.229 382.956,159.020 382.759 C 158.811 382.562,158.057 382.400,157.344 382.400 C 156.631 382.400,155.936 382.220,155.800 382.000 C 155.664 381.780,154.944 381.600,154.200 381.600 C 153.456 381.600,152.736 381.420,152.600 381.200 C 152.464 380.980,151.834 380.800,151.200 380.800 C 150.566 380.800,149.936 380.620,149.800 380.400 C 149.664 380.180,149.034 380.000,148.400 380.000 C 147.766 380.000,147.136 379.820,147.000 379.600 C 146.864 379.380,146.234 379.200,145.600 379.200 C 144.966 379.200,144.336 379.020,144.200 378.800 C 144.064 378.580,143.513 378.400,142.976 378.400 C 142.439 378.400,142.000 378.220,142.000 378.000 C 142.000 377.780,141.460 377.600,140.800 377.600 C 140.140 377.600,139.600 377.420,139.600 377.200 C 139.600 376.980,139.060 376.800,138.400 376.800 C 137.740 376.800,137.200 376.620,137.200 376.400 C 137.200 376.180,136.838 376.000,136.395 376.000 C 135.952 376.000,135.277 375.841,134.895 375.647 C 134.208 375.297,132.849 374.727,131.100 374.054 C 130.605 373.863,129.750 373.522,129.200 373.295 C 128.650 373.068,127.210 372.484,126.000 371.996 C 121.579 370.215,114.392 366.863,114.000 366.399 C 113.890 366.269,112.810 365.675,111.600 365.079 C 109.135 363.866,107.101 362.717,106.800 362.368 C 106.690 362.240,106.015 361.881,105.300 361.570 C 104.585 361.259,104.000 360.869,104.000 360.702 C 104.000 360.536,103.730 360.400,103.400 360.400 C 103.070 360.400,102.800 360.220,102.800 360.000 C 102.800 359.780,102.626 359.600,102.412 359.600 C 102.001 359.600,97.246 356.620,93.644 354.105 C 92.459 353.277,90.440 351.871,89.159 350.979 C 87.877 350.088,86.319 348.918,85.695 348.379 C 85.072 347.841,83.760 346.772,82.781 346.006 C 79.929 343.772,79.562 343.465,78.238 342.200 C 77.547 341.540,76.103 340.290,75.029 339.422 C 72.445 337.335,63.524 328.425,61.000 325.411 C 59.900 324.097,58.460 322.456,57.800 321.764 C 56.526 320.428,56.193 320.030,53.994 317.213 C 53.228 316.231,52.193 314.971,51.695 314.413 C 51.197 313.856,49.593 311.643,48.130 309.495 C 46.667 307.348,45.230 305.391,44.935 305.146 C 44.641 304.902,44.400 304.536,44.400 304.333 C 44.400 304.130,43.500 302.630,42.400 301.000 C 41.300 299.370,40.400 297.848,40.400 297.618 C 40.400 297.388,40.220 297.200,40.000 297.200 C 39.780 297.200,39.600 296.930,39.600 296.600 C 39.600 296.270,39.464 296.000,39.298 296.000 C 39.131 296.000,38.741 295.415,38.430 294.700 C 38.119 293.985,37.760 293.310,37.632 293.200 C 37.283 292.899,36.134 290.865,34.921 288.400 C 34.325 287.190,33.739 286.110,33.619 286.000 C 33.241 285.655,30.178 279.157,28.622 275.400 C 27.802 273.420,26.943 271.350,26.712 270.800 C 26.482 270.250,26.137 269.395,25.946 268.900 C 25.273 267.151,24.703 265.792,24.353 265.105 C 24.159 264.723,24.000 264.048,24.000 263.605 C 24.000 263.162,23.820 262.800,23.600 262.800 C 23.380 262.800,23.200 262.260,23.200 261.600 C 23.200 260.940,23.020 260.400,22.800 260.400 C 22.580 260.400,22.400 259.860,22.400 259.200 C 22.400 258.540,22.220 258.000,22.000 258.000 C 21.780 258.000,21.600 257.561,21.600 257.024 C 21.600 256.487,21.420 255.936,21.200 255.800 C 20.980 255.664,20.800 255.034,20.800 254.400 C 20.800 253.766,20.620 253.136,20.400 253.000 C 20.180 252.864,20.000 252.234,20.000 251.600 C 20.000 250.966,19.820 250.336,19.600 250.200 C 19.380 250.064,19.200 249.434,19.200 248.800 C 19.200 248.166,19.020 247.536,18.800 247.400 C 18.580 247.264,18.400 246.544,18.400 245.800 C 18.400 245.056,18.239 244.348,18.042 244.226 C 17.845 244.105,17.587 243.329,17.468 242.503 C 17.349 241.676,17.051 240.100,16.805 239.000 C 16.371 237.060,16.037 235.293,15.197 230.500 C 12.209 213.443,12.209 186.557,15.197 169.500 C 16.037 164.707,16.371 162.940,16.805 161.000 C 17.051 159.900,17.349 158.324,17.468 157.497 C 17.587 156.671,17.845 155.895,18.042 155.774 C 18.239 155.652,18.400 154.944,18.400 154.200 C 18.400 153.456,18.580 152.736,18.800 152.600 C 19.020 152.464,19.200 151.834,19.200 151.200 C 19.200 150.566,19.380 149.936,19.600 149.800 C 19.820 149.664,20.000 149.034,20.000 148.400 C 20.000 147.766,20.180 147.136,20.400 147.000 C 20.620 146.864,20.800 146.234,20.800 145.600 C 20.800 144.966,20.980 144.336,21.200 144.200 C 21.420 144.064,21.600 143.513,21.600 142.976 C 21.600 142.439,21.780 142.000,22.000 142.000 C 22.220 142.000,22.400 141.460,22.400 140.800 C 22.400 140.140,22.580 139.600,22.800 139.600 C 23.020 139.600,23.200 139.060,23.200 138.400 C 23.200 137.740,23.380 137.200,23.600 137.200 C 23.820 137.200,24.000 136.838,24.000 136.395 C 24.000 135.952,24.159 135.277,24.353 134.895 C 24.548 134.513,24.884 133.750,25.100 133.200 C 26.371 129.967,26.721 129.126,29.427 122.800 C 30.698 119.830,31.876 117.214,32.046 116.987 C 32.215 116.759,33.267 114.818,34.383 112.672 C 36.724 108.170,37.322 107.078,37.600 106.800 C 37.996 106.404,39.254 104.185,39.471 103.500 C 39.593 103.115,39.852 102.800,40.047 102.800 C 40.241 102.800,40.400 102.612,40.400 102.382 C 40.400 102.152,41.300 100.630,42.400 99.000 C 43.500 97.370,44.400 95.863,44.400 95.651 C 44.400 95.440,44.547 95.207,44.726 95.133 C 44.905 95.060,46.300 93.185,47.826 90.967 C 50.254 87.437,51.605 85.654,54.000 82.817 C 54.330 82.426,55.050 81.509,55.600 80.780 C 56.150 80.050,57.320 78.718,58.200 77.819 C 59.080 76.921,60.293 75.529,60.896 74.725 C 62.317 72.830,72.830 62.317,74.725 60.896 C 75.529 60.293,76.921 59.080,77.819 58.200 C 78.718 57.320,80.050 56.150,80.780 55.600 C 81.509 55.050,82.426 54.330,82.817 54.000 C 85.654 51.605,87.437 50.254,90.967 47.826 C 93.185 46.300,95.060 44.905,95.133 44.726 C 95.207 44.547,95.440 44.400,95.651 44.400 C 95.863 44.400,97.370 43.500,99.000 42.400 C 100.630 41.300,102.152 40.400,102.382 40.400 C 102.612 40.400,102.800 40.241,102.800 40.047 C 102.800 39.852,103.115 39.593,103.500 39.471 C 104.185 39.254,106.404 37.996,106.800 37.600 C 107.078 37.322,108.170 36.724,112.672 34.383 C 114.818 33.267,116.759 32.215,116.987 32.046 C 117.466 31.688,128.686 26.847,131.000 26.000 C 132.194 25.563,134.108 24.753,134.895 24.353 C 135.277 24.159,135.952 24.000,136.395 24.000 C 136.838 24.000,137.200 23.820,137.200 23.600 C 137.200 23.380,137.740 23.200,138.400 23.200 C 139.060 23.200,139.600 23.020,139.600 22.800 C 139.600 22.580,140.140 22.400,140.800 22.400 C 141.460 22.400,142.000 22.220,142.000 22.000 C 142.000 21.780,142.439 21.600,142.976 21.600 C 143.513 21.600,144.064 21.420,144.200 21.200 C 144.336 20.980,144.966 20.800,145.600 20.800 C 146.234 20.800,146.864 20.620,147.000 20.400 C 147.136 20.180,147.766 20.000,148.400 20.000 C 149.034 20.000,149.664 19.820,149.800 19.600 C 149.936 19.380,150.566 19.200,151.200 19.200 C 151.834 19.200,152.464 19.020,152.600 18.800 C 152.736 18.580,153.456 18.400,154.200 18.400 C 154.944 18.400,155.652 18.239,155.774 18.042 C 155.895 17.845,156.671 17.587,157.497 17.468 C 158.324 17.349,159.900 17.051,161.000 16.805 C 162.100 16.559,163.945 16.187,165.100 15.979 C 172.706 14.607,175.306 14.261,182.991 13.599 C 185.845 13.353,188.275 13.058,188.390 12.943 C 188.746 12.588,213.563 13.112,217.800 13.564 M107.000 81.290 C 106.120 81.504,105.087 81.841,104.705 82.039 C 104.323 82.238,103.659 82.400,103.229 82.400 C 102.799 82.400,102.336 82.580,102.200 82.800 C 102.064 83.020,101.549 83.200,101.056 83.200 C 100.563 83.200,99.986 83.374,99.773 83.587 C 99.559 83.801,98.509 84.419,97.438 84.961 C 92.752 87.333,87.333 92.752,84.961 97.438 C 84.419 98.509,83.801 99.559,83.587 99.773 C 83.374 99.986,83.200 100.563,83.200 101.056 C 83.200 101.549,83.020 102.064,82.800 102.200 C 82.580 102.336,82.400 102.799,82.400 103.229 C 82.400 103.659,82.241 104.323,82.047 104.705 C 80.839 107.085,80.800 110.051,80.800 200.000 C 80.800 289.949,80.839 292.915,82.047 295.295 C 82.241 295.677,82.400 296.341,82.400 296.771 C 82.400 297.201,82.580 297.664,82.800 297.800 C 83.020 297.936,83.200 298.414,83.200 298.862 C 83.200 299.310,83.521 300.154,83.914 300.738 C 84.307 301.322,84.888 302.340,85.205 303.000 C 85.799 304.236,88.434 307.819,90.073 309.618 C 91.259 310.921,95.440 314.045,97.000 314.795 C 97.660 315.112,98.650 315.659,99.200 316.011 C 99.750 316.363,101.010 316.885,102.000 317.171 C 102.990 317.457,104.160 317.827,104.600 317.992 C 107.720 319.166,110.414 319.200,200.000 319.200 C 289.586 319.200,292.280 319.166,295.400 317.992 C 295.840 317.827,297.010 317.457,298.000 317.171 C 298.990 316.885,300.250 316.363,300.800 316.011 C 301.350 315.659,302.340 315.112,303.000 314.795 C 307.132 312.810,312.810 307.132,314.795 303.000 C 315.112 302.340,315.659 301.350,316.011 300.800 C 316.363 300.250,316.885 298.990,317.171 298.000 C 317.457 297.010,317.827 295.840,317.992 295.400 C 319.166 292.280,319.200 289.586,319.200 200.000 C 319.200 110.414,319.166 107.720,317.992 104.600 C 317.827 104.160,317.457 102.990,317.171 102.000 C 316.885 101.010,316.363 99.750,316.011 99.200 C 315.659 98.650,315.112 97.660,314.795 97.000 C 314.045 95.440,310.921 91.259,309.618 90.073 C 307.819 88.434,304.236 85.799,303.000 85.205 C 302.340 84.888,301.322 84.307,300.738 83.914 C 300.154 83.521,299.310 83.200,298.862 83.200 C 298.414 83.200,297.936 83.020,297.800 82.800 C 297.664 82.580,297.201 82.400,296.771 82.400 C 296.341 82.400,295.677 82.241,295.295 82.047 C 292.911 80.837,290.015 80.800,199.694 80.851 C 142.269 80.882,108.009 81.045,107.000 81.290 M290.200 93.200 C 290.336 93.420,290.996 93.600,291.668 93.600 C 296.857 93.600,304.867 101.309,306.491 107.867 C 307.184 110.666,307.184 289.334,306.491 292.133 C 304.887 298.607,298.607 304.887,292.133 306.491 C 289.334 307.184,110.666 307.184,107.867 306.491 C 101.309 304.867,93.600 296.857,93.600 291.668 C 93.600 290.996,93.420 290.336,93.200 290.200 C 92.646 289.857,92.646 110.143,93.200 109.800 C 93.420 109.664,93.600 109.004,93.600 108.332 C 93.600 103.026,103.026 93.600,108.332 93.600 C 109.004 93.600,109.664 93.420,109.800 93.200 C 109.964 92.935,140.463 92.800,200.000 92.800 C 259.537 92.800,290.036 92.935,290.200 93.200 M269.000 107.696 C 265.800 108.791,263.600 109.770,263.600 110.098 C 263.600 110.264,263.340 110.400,263.022 110.400 C 262.017 110.400,257.390 115.401,256.314 117.652 C 248.039 134.951,265.050 152.064,282.270 143.765 C 284.667 142.610,289.600 138.031,289.600 136.962 C 289.600 136.653,289.735 136.399,289.900 136.397 C 290.259 136.393,291.200 134.456,291.200 133.720 C 291.200 133.434,291.380 133.200,291.600 133.200 C 291.820 133.200,292.000 132.671,292.000 132.024 C 292.000 131.377,292.180 130.736,292.400 130.600 C 292.621 130.463,292.800 128.663,292.800 126.576 C 292.800 124.325,292.638 122.800,292.400 122.800 C 292.180 122.800,292.000 122.348,292.000 121.795 C 292.000 121.242,291.832 120.477,291.626 120.095 C 291.421 119.713,291.017 118.815,290.729 118.100 C 290.440 117.385,290.069 116.800,289.902 116.800 C 289.736 116.800,289.600 116.622,289.600 116.405 C 289.600 115.939,288.686 114.780,286.953 113.047 C 285.220 111.314,284.061 110.400,283.595 110.400 C 283.378 110.400,283.200 110.264,283.200 110.098 C 283.200 109.931,282.615 109.560,281.900 109.271 C 281.185 108.983,280.287 108.579,279.905 108.374 C 279.523 108.168,278.769 108.000,278.229 108.000 C 277.689 108.000,277.136 107.820,277.000 107.600 C 276.682 107.085,270.570 107.158,269.000 107.696 M275.450 119.847 C 276.082 119.997,276.690 120.227,276.800 120.360 C 276.910 120.492,277.360 120.795,277.800 121.033 C 278.240 121.271,278.778 121.856,278.995 122.333 C 279.212 122.810,279.527 123.200,279.695 123.200 C 279.863 123.200,280.000 123.639,280.000 124.176 C 280.000 124.713,280.180 125.264,280.400 125.400 C 280.620 125.536,280.800 126.076,280.800 126.600 C 280.800 127.124,280.620 127.664,280.400 127.800 C 280.180 127.936,280.000 128.425,280.000 128.886 C 280.000 133.769,271.062 135.473,267.712 131.228 C 264.774 127.505,266.956 120.000,270.976 120.000 C 271.513 120.000,272.075 119.803,272.223 119.562 C 272.372 119.322,272.900 119.226,273.397 119.350 C 273.894 119.474,274.818 119.697,275.450 119.847 M193.000 134.383 C 192.560 134.581,191.528 134.756,190.706 134.772 C 188.354 134.816,184.122 135.860,178.010 137.903 C 174.238 139.163,168.916 141.423,168.400 141.983 C 168.042 142.371,165.818 143.643,165.100 143.871 C 164.715 143.993,164.400 144.252,164.400 144.447 C 164.400 144.641,164.164 144.800,163.875 144.800 C 163.587 144.800,163.002 145.120,162.575 145.511 C 162.149 145.902,161.170 146.660,160.400 147.196 C 157.017 149.549,149.549 157.017,147.196 160.400 C 146.660 161.170,145.902 162.149,145.511 162.575 C 145.120 163.002,144.800 163.587,144.800 163.875 C 144.800 164.164,144.641 164.400,144.447 164.400 C 144.252 164.400,143.993 164.715,143.871 165.100 C 143.643 165.818,142.371 168.042,141.983 168.400 C 141.423 168.916,139.163 174.238,137.903 178.010 C 135.973 183.782,135.483 185.763,134.536 191.600 C 134.158 193.933,134.158 206.067,134.536 208.400 C 136.102 218.054,139.460 227.990,142.876 233.072 C 143.494 233.992,144.000 234.937,144.000 235.172 C 144.000 235.407,144.180 235.600,144.400 235.600 C 144.620 235.600,144.800 235.836,144.800 236.125 C 144.800 236.413,145.120 236.998,145.511 237.425 C 145.902 237.851,146.661 238.830,147.197 239.600 C 149.647 243.115,156.885 250.353,160.400 252.803 C 161.170 253.339,162.149 254.098,162.575 254.489 C 163.002 254.880,163.587 255.200,163.875 255.200 C 164.164 255.200,164.400 255.380,164.400 255.600 C 164.400 255.820,164.593 256.000,164.828 256.000 C 165.063 256.000,166.008 256.506,166.928 257.125 C 168.452 258.151,170.620 259.256,174.400 260.936 C 175.784 261.551,181.287 263.299,184.000 263.986 C 185.602 264.391,188.558 264.952,192.600 265.615 C 195.375 266.071,205.930 265.951,208.800 265.432 C 212.243 264.808,214.705 264.314,216.000 263.986 C 218.713 263.299,224.216 261.551,225.600 260.936 C 229.380 259.256,231.548 258.151,233.072 257.125 C 233.992 256.506,234.937 256.000,235.172 256.000 C 235.407 256.000,235.600 255.820,235.600 255.600 C 235.600 255.380,235.836 255.200,236.125 255.200 C 236.413 255.200,236.998 254.880,237.425 254.489 C 237.851 254.098,238.830 253.339,239.600 252.803 C 243.115 250.353,250.353 243.115,252.803 239.600 C 253.339 238.830,254.098 237.851,254.489 237.425 C 254.880 236.998,255.200 236.413,255.200 236.125 C 255.200 235.836,255.380 235.600,255.600 235.600 C 255.820 235.600,256.000 235.407,256.000 235.172 C 256.000 234.937,256.506 233.992,257.125 233.072 C 258.706 230.723,261.055 225.693,262.203 222.200 C 263.607 217.928,264.201 215.495,265.279 209.600 C 265.801 206.743,265.928 194.457,265.464 191.600 C 264.102 183.211,262.253 176.977,259.292 170.800 C 258.712 169.590,258.139 168.510,258.019 168.400 C 257.898 168.290,257.603 167.840,257.362 167.400 C 256.263 165.389,255.751 164.585,255.100 163.845 C 254.715 163.407,254.400 162.813,254.400 162.525 C 254.400 162.236,254.265 161.999,254.100 161.997 C 253.935 161.996,253.350 161.326,252.800 160.509 C 250.383 156.918,243.082 149.617,239.491 147.200 C 238.674 146.650,238.004 146.065,238.003 145.900 C 238.001 145.735,237.730 145.600,237.400 145.600 C 237.070 145.600,236.800 145.420,236.800 145.200 C 236.800 144.980,236.530 144.800,236.200 144.800 C 235.870 144.800,235.600 144.641,235.600 144.447 C 235.600 144.252,235.285 143.993,234.900 143.871 C 234.182 143.643,231.958 142.371,231.600 141.983 C 229.881 140.118,216.177 135.707,208.600 134.579 C 205.780 134.160,193.829 134.009,193.000 134.383 M209.964 147.042 C 211.414 147.358,213.140 147.717,213.800 147.842 C 215.007 148.069,216.632 148.574,218.300 149.240 C 218.795 149.438,219.605 149.758,220.100 149.951 C 221.461 150.482,226.572 152.955,226.800 153.193 C 226.910 153.307,227.495 153.656,228.100 153.968 C 228.705 154.280,229.200 154.685,229.200 154.868 C 229.200 155.050,229.436 155.200,229.725 155.200 C 230.013 155.200,230.598 155.520,231.025 155.911 C 231.451 156.302,232.430 157.054,233.200 157.581 C 235.614 159.236,243.200 167.143,243.200 168.005 C 243.200 168.222,243.350 168.400,243.532 168.400 C 243.715 168.400,244.120 168.895,244.432 169.500 C 244.745 170.105,245.315 170.949,245.700 171.375 C 246.085 171.802,246.400 172.387,246.400 172.675 C 246.400 172.964,246.535 173.201,246.700 173.203 C 247.059 173.207,248.000 175.144,248.000 175.880 C 248.000 176.166,248.136 176.400,248.302 176.400 C 248.572 176.400,248.948 177.162,249.980 179.800 C 250.152 180.240,250.485 181.050,250.720 181.600 C 251.361 183.102,251.997 185.428,253.234 190.800 C 253.539 192.127,253.740 195.778,253.740 200.000 C 253.740 204.222,253.539 207.873,253.234 209.200 C 251.692 215.895,251.116 217.808,249.953 220.095 C 249.759 220.477,249.600 221.062,249.600 221.395 C 249.600 221.728,249.420 222.000,249.200 222.000 C 248.980 222.000,248.800 222.360,248.800 222.800 C 248.800 223.240,248.620 223.600,248.400 223.600 C 248.180 223.600,248.000 223.960,248.000 224.400 C 248.000 224.840,247.820 225.200,247.600 225.200 C 247.380 225.200,247.200 225.560,247.200 226.000 C 247.200 226.440,247.020 226.800,246.800 226.800 C 246.580 226.800,246.400 227.036,246.400 227.325 C 246.400 227.613,246.040 228.236,245.600 228.708 C 245.160 229.180,244.800 229.720,244.800 229.908 C 244.800 230.096,244.480 230.598,244.089 231.025 C 243.698 231.451,242.944 232.430,242.413 233.200 C 241.165 235.011,235.011 241.165,233.200 242.413 C 232.430 242.944,231.451 243.698,231.025 244.089 C 230.598 244.480,230.096 244.800,229.908 244.800 C 229.720 244.800,229.180 245.160,228.708 245.600 C 228.236 246.040,227.613 246.400,227.325 246.400 C 227.036 246.400,226.800 246.580,226.800 246.800 C 226.800 247.020,226.440 247.200,226.000 247.200 C 225.560 247.200,225.200 247.380,225.200 247.600 C 225.200 247.820,224.840 248.000,224.400 248.000 C 223.960 248.000,223.600 248.180,223.600 248.400 C 223.600 248.620,223.240 248.800,222.800 248.800 C 222.360 248.800,222.000 248.980,222.000 249.200 C 222.000 249.420,221.728 249.600,221.395 249.600 C 221.062 249.600,220.477 249.759,220.095 249.953 C 217.808 251.116,215.895 251.692,209.200 253.234 C 206.277 253.906,193.723 253.906,190.800 253.234 C 185.614 252.040,183.138 251.371,181.700 250.774 C 181.205 250.568,180.395 250.235,179.900 250.034 C 179.405 249.832,178.415 249.428,177.700 249.136 C 176.985 248.844,176.400 248.469,176.400 248.302 C 176.400 248.136,176.166 248.000,175.880 248.000 C 175.144 248.000,173.207 247.059,173.203 246.700 C 173.201 246.535,172.964 246.400,172.675 246.400 C 172.387 246.400,171.802 246.085,171.375 245.700 C 170.949 245.315,170.105 244.745,169.500 244.432 C 168.895 244.120,168.400 243.715,168.400 243.532 C 168.400 243.350,168.222 243.200,168.005 243.200 C 167.143 243.200,159.236 235.614,157.581 233.200 C 157.054 232.430,156.302 231.451,155.911 231.025 C 155.520 230.598,155.200 230.013,155.200 229.725 C 155.200 229.436,155.050 229.200,154.868 229.200 C 154.685 229.200,154.280 228.705,153.968 228.100 C 153.656 227.495,153.307 226.910,153.193 226.800 C 152.955 226.572,150.482 221.461,149.951 220.100 C 149.758 219.605,149.436 218.795,149.236 218.300 C 148.566 216.642,148.302 215.809,147.998 214.400 C 147.832 213.630,147.378 211.560,146.989 209.800 C 146.001 205.334,146.001 194.666,146.989 190.200 C 147.378 188.440,147.837 186.370,148.008 185.600 C 148.384 183.912,149.765 180.102,150.135 179.732 C 150.281 179.586,150.400 179.137,150.400 178.733 C 150.400 178.330,150.580 178.000,150.800 178.000 C 151.020 178.000,151.200 177.640,151.200 177.200 C 151.200 176.760,151.380 176.400,151.600 176.400 C 151.820 176.400,152.000 176.128,152.000 175.795 C 152.000 175.239,152.723 173.676,153.201 173.200 C 153.311 173.090,153.656 172.505,153.968 171.900 C 154.280 171.295,154.685 170.800,154.868 170.800 C 155.050 170.800,155.200 170.564,155.200 170.275 C 155.200 169.987,155.520 169.402,155.911 168.975 C 156.302 168.549,157.056 167.570,157.587 166.800 C 158.835 164.989,164.989 158.835,166.800 157.587 C 167.570 157.056,168.549 156.302,168.975 155.911 C 169.402 155.520,169.987 155.200,170.275 155.200 C 170.564 155.200,170.800 155.050,170.800 154.868 C 170.800 154.685,171.295 154.280,171.900 153.968 C 172.505 153.656,173.090 153.311,173.200 153.201 C 173.676 152.723,175.239 152.000,175.795 152.000 C 176.128 152.000,176.400 151.820,176.400 151.600 C 176.400 151.380,176.760 151.200,177.200 151.200 C 177.640 151.200,178.000 151.020,178.000 150.800 C 178.000 150.580,178.330 150.400,178.733 150.400 C 179.137 150.400,179.586 150.281,179.732 150.135 C 180.096 149.770,183.889 148.391,185.600 148.000 C 190.271 146.934,191.702 146.672,194.400 146.388 C 198.349 145.973,206.653 146.322,209.964 147.042 " stroke="none" fill="#ffffff" fill-rule="evenodd"></path></g></svg>